<svg id="Layer_1" data-name="Layer 1" xmlns="http://www.w3.org/2000/svg" viewBox="0 0 1366 768"><defs><style>.cls-1{fill:none;stroke:#ffc5b4;stroke-linecap:round;stroke-linejoin:round;stroke-width:6px;}.cls-2{font-size:155px;font-family:Inter-Bold, Inter;font-weight:700;}.cls-3{letter-spacing:-0.02em;}</style></defs><path class="cls-1" d="M1183.92,481.24a180.9,180.9,0,0,1-23.69,23.68"/><path class="cls-1" d="M907,251.09A180.38,180.38,0,0,1,930.07,228"/><path class="cls-1" d="M1160.63,228a180.2,180.2,0,0,1,23.29,23.34"/><path class="cls-1" d="M930.48,504.92A180.48,180.48,0,0,1,907,481.49"/><path class="cls-1" d="M982.15,504.92A152.68,152.68,0,0,1,907,430.09"/><path class="cls-1" d="M907.1,458.49A166.93,166.93,0,0,0,953.8,505"/><path class="cls-1" d="M1160.67,504.92a180.48,180.48,0,0,0,23.48-23.43"/><path class="cls-1" d="M1109,504.92a152.6,152.6,0,0,0,75.15-74.83"/><path class="cls-1" d="M1184.05,458.49a166.8,166.8,0,0,1-46.7,46.55"/><path class="cls-1" d="M1183.93,251.47A180.48,180.48,0,0,0,1160.5,228"/><path class="cls-1" d="M1183.93,303.14A152.68,152.68,0,0,0,1109.1,228"/><path class="cls-1" d="M1137.5,228.09a166.8,166.8,0,0,1,46.55,46.7"/><path class="cls-1" d="M907.22,251.47A180.48,180.48,0,0,1,930.65,228"/><path class="cls-1" d="M907.22,303.14A152.68,152.68,0,0,1,982.05,228"/><path class="cls-1" d="M953.65,228.09a166.93,166.93,0,0,0-46.55,46.7"/><path class="cls-1" d="M907,361.07v10.44A138.46,138.46,0,1,0,1052.3,228h-13.89A138.38,138.38,0,0,0,907,361.07Zm263,5.22a124.62,124.62,0,1,1-124.62-124.62A124.54,124.54,0,0,1,1170,366.29Z"/><path class="cls-1" d="M934.58,366.29a110.77,110.77,0,1,0,110.77-110.77A110.71,110.71,0,0,0,934.58,366.29Zm207.7,0a96.93,96.93,0,1,1-96.93-96.92A96.87,96.87,0,0,1,1142.28,366.29Z"/><path class="cls-1" d="M962.28,366.29a83.08,83.08,0,1,0,83.07-83.08A83,83,0,0,0,962.28,366.29Zm152.3,0a69.23,69.23,0,1,1-69.23-69.23A69.19,69.19,0,0,1,1114.58,366.29Z"/><text class="cls-2" transform="translate(521.05 331)">easy</text><text class="cls-2" transform="translate(174.23 477.07)">compa<tspan class="cls-3" x="515.47" y="0">n</tspan><tspan x="608.77" y="0">y</tspan></text></svg>